<svg xmlns="http://www.w3.org/2000/svg" viewBox="0 0 400 400" fill="none" stroke="currentColor" stroke-width="0.9"><path d="M403 200l-2 21l-7 20l-11 17l-15 13l-16 9l-16 5l-16 0l-14-4l-11-8l-7-9l-3-11l2-10l6-8l9-5l11-2l13 3l12 7l10 11l8 15l4 18l0 19l-5 20l-10 18l-14 16l-17 12l-19 8l-21 4l-19-2l-18-5l-15-10l-11-12l-7-13l-3-13l2-12l6-10l8-6l10-2l10 2l9 7l7 11l3 13l-1 15l-5 16l-10 15l-15 12l-17 9l-20 5l-21 1l-21-5l-19-8l-16-13l-13-16l-8-17l-3-18l1-17l5-14l9-11l10-8l11-2l10 1l9 6l5 8l2 11l-3 12l-7 11l-12 10l-15 6l-17 3l-19-2l-18-7l-17-11l-14-15l-11-19l-6-20l-2-21l3-20l8-17l11-15l13-11l14-6l15-2l12 3l10 6l7 8l2 10l-2 10l-7 8l-10 6l-12 3l-15-2l-14-6l-13-11l-11-15l-8-17l-3-20l2-21l6-20l11-19l14-15l17-11l18-7l19-2l17 3l15 6l12 10l7 11l3 12l-2 11l-5 8l-9 6l-10 1l-11-2l-10-8l-9-11l-5-14l-1-17l3-18l8-17l13-16l16-13l19-8l21-5l21 1l20 5l17 9l15 12l10 15l5 16l1 15l-3 13l-7 11l-9 7l-10 2l-10-2l-8-6l-6-10l-2-12l3-13l7-13l11-12l15-10l18-5l19-2l21 4l19 8l17 12l14 16l10 18l5 20l0 19l-4 18l-8 15l-10 11l-12 7l-13 3l-11-2l-9-5l-6-8l-2-10l3-11l7-9l11-8l14-4l16 0l16 5l16 9l15 13l11 17l7 20l2 21z"/><path d="M393 231l-11 17l-14 13l-16 9l-16 4l-16-1l-13-4l-10-8l-6-9l-2-11l3-10l7-7l9-5l12-1l13 3l13 8l10 12l8 16l4 18l-1 20l-5 20l-10 18l-14 16l-17 12l-19 8l-20 3l-20-2l-17-5l-14-10l-11-12l-6-13l-2-12l3-12l6-9l9-5l10-1l10 4l9 7l6 12l3 14l-1 15l-7 17l-10 14l-15 13l-18 9l-20 5l-21 1l-21-5l-19-9l-16-13l-12-15l-7-17l-3-18l1-16l6-13l8-11l10-6l11-2l10 3l8 6l5 9l0 12l-3 12l-8 11l-13 9l-15 7l-18 2l-19-2l-19-7l-17-12l-14-15l-11-19l-6-20l-1-20l3-20l8-17l11-14l13-11l14-5l14-1l12 3l9 6l5 9l1 10l-3 10l-7 8l-11 6l-13 2l-15-3l-15-7l-14-11l-10-15l-8-19l-3-20l2-21l6-20l11-18l14-15l17-11l19-6l18-2l16 3l15 7l10 9l6 11l2 12l-2 10l-6 8l-9 5l-11 0l-11-3l-11-9l-8-12l-5-15l0-17l3-18l9-18l13-16l16-12l19-9l21-4l21 0l19 6l18 9l13 12l10 15l5 15l0 15l-3 12l-7 10l-9 6l-11 1l-9-3l-8-7l-5-10l-2-13l3-14l8-13l12-12l15-10l19-5l20-1l20 3l20 8l17 13l13 16l10 18l5 19l0 19l-4 17l-8 14l-11 11l-12 6l-12 2l-11-2l-8-6l-5-9l-1-10l4-11l8-10l11-7l15-3l17 0l17 5l16 10l14 14l11 17l7 20l3 21l-3 21l-7 19z"/><path d="M366 250l-15 9l-16 3l-15-1l-12-5l-9-7l-5-10l-1-10l3-10l8-7l11-4l12-1l13 5l13 8l11 13l8 16l3 19l-1 20l-5 20l-10 18l-15 16l-17 12l-19 8l-20 3l-19-2l-16-6l-14-10l-10-11l-5-13l-1-12l3-11l7-8l9-4l11 0l10 4l8 9l6 12l3 15l-2 16l-7 16l-11 16l-15 12l-19 9l-20 5l-21 0l-21-4l-18-9l-16-13l-12-16l-7-16l-2-17l2-15l5-13l9-10l10-5l11-1l9 3l8 7l4 10l0 12l-5 13l-9 11l-13 9l-16 7l-18 2l-20-3l-19-7l-17-12l-14-16l-11-18l-5-20l-2-20l4-20l8-16l10-14l13-9l14-5l13-1l11 4l9 7l4 9l0 10l-4 10l-8 8l-12 5l-14 1l-15-3l-15-7l-14-12l-11-16l-7-19l-3-20l2-21l7-20l10-18l15-15l17-10l17-6l18-1l16 3l13 6l10 10l6 11l1 11l-4 10l-6 7l-10 4l-11 0l-12-5l-10-9l-8-13l-5-15l0-18l4-19l9-18l13-16l16-12l20-9l20-4l21 1l19 5l17 10l13 12l9 14l4 15l0 14l-4 12l-7 8l-9 5l-11 1l-9-4l-8-8l-4-11l-1-13l4-15l8-14l12-12l17-9l19-6l20-1l20 4l20 9l17 12l13 16l9 18l5 19l0 18l-5 17l-8 14l-10 9l-12 6l-12 1l-10-3l-8-7l-4-9l1-11l4-11l9-9l13-7l15-4l17 1l18 6l16 10l14 14l11 18l7 20l2 21l-3 21l-7 19l-11 16l-14 12z"/><path d="M334 250l-14-1l-12-5l-8-8l-4-10l0-10l4-9l9-7l11-4l13 1l14 5l13 9l10 14l8 16l4 20l-2 20l-5 20l-11 18l-14 16l-17 12l-19 7l-20 3l-18-2l-16-7l-13-9l-9-11l-5-13l0-12l4-10l8-7l9-3l11 1l10 5l9 10l5 13l2 15l-2 17l-7 16l-12 16l-16 13l-18 9l-21 4l-21 0l-20-5l-19-9l-15-12l-11-16l-7-16l-2-16l3-15l6-12l8-9l10-4l11 0l9 4l7 8l3 11l-1 12l-5 13l-10 11l-14 10l-16 6l-19 2l-20-3l-19-8l-17-12l-15-16l-10-18l-5-20l-1-20l3-19l8-16l11-13l13-8l13-5l12 1l11 4l8 7l3 10l-1 10l-5 10l-9 7l-12 5l-15 1l-16-3l-15-9l-14-12l-11-16l-7-19l-3-21l2-21l7-20l11-18l14-14l16-10l18-6l17-1l15 4l13 7l9 9l4 11l1 11l-4 9l-8 7l-10 3l-12-1l-12-6l-10-9l-8-14l-5-17l0-18l5-19l9-18l13-16l17-12l20-9l20-4l20 1l19 6l17 9l12 12l8 14l4 15l-1 13l-4 11l-8 8l-9 4l-11-1l-9-5l-7-8l-4-12l0-14l4-15l9-14l13-12l17-10l19-5l21-1l20 4l20 9l16 12l13 16l9 18l4 19l0 18l-5 15l-8 13l-10 9l-12 5l-11 0l-10-4l-6-7l-4-10l1-11l6-11l10-10l13-6l16-3l18 1l17 6l17 10l15 15l10 18l7 20l2 21l-3 20l-7 19l-11 16l-14 12l-15 7l-15 3z"/><path d="M307 231l-7-8l-3-10l1-10l5-9l9-6l12-3l14 1l14 5l13 11l11 14l8 17l3 20l-1 20l-6 20l-11 19l-14 15l-17 12l-19 7l-19 2l-18-2l-15-7l-13-9l-8-11l-3-12l0-12l5-9l8-6l10-3l11 2l10 6l8 11l6 13l1 16l-3 18l-7 17l-12 15l-16 13l-19 9l-21 5l-21-1l-20-5l-18-9l-15-13l-10-14l-7-17l-1-15l3-14l6-12l9-7l10-4l10 1l9 5l6 9l3 12l-2 12l-6 13l-11 12l-14 10l-17 5l-20 2l-20-3l-19-8l-17-12l-14-16l-10-18l-5-20l-1-20l4-18l8-16l10-12l13-8l13-3l12 1l9 5l7 7l3 10l-2 11l-6 9l-10 8l-13 4l-16 1l-16-4l-16-9l-14-13l-11-17l-7-19l-3-21l3-21l7-20l11-17l14-14l16-10l17-5l17 0l15 3l11 7l8 10l4 11l-1 10l-5 9l-8 6l-11 2l-12-2l-12-6l-11-11l-8-14l-4-17l0-19l5-19l10-18l13-16l17-13l20-8l20-3l20 1l19 5l15 10l12 12l8 13l3 14l-2 13l-5 10l-8 7l-9 3l-11-1l-9-6l-7-10l-3-12l0-15l5-15l10-15l13-12l18-9l19-6l21 0l21 4l19 9l16 12l13 16l9 18l3 18l0 17l-5 15l-8 12l-11 9l-11 3l-11 0l-9-5l-6-8l-2-10l2-12l6-11l10-9l15-7l16-3l18 2l19 6l17 11l14 15l11 18l6 20l2 21l-3 20l-8 19l-10 15l-14 11l-15 7l-15 3l-13-2l-11-6z"/><path d="M297 200l2-10l7-8l10-6l12-3l15 2l14 6l13 11l11 15l8 17l3 20l-2 21l-6 20l-11 19l-14 15l-17 11l-18 7l-19 2l-17-3l-15-6l-12-10l-7-11l-3-12l2-11l5-8l9-6l10-1l11 2l10 8l9 11l5 14l1 17l-3 18l-8 17l-13 16l-16 13l-19 8l-21 5l-21-1l-20-5l-17-9l-15-12l-10-15l-5-16l-1-15l3-13l7-11l9-7l10-2l10 2l8 6l6 10l2 12l-3 13l-7 13l-11 12l-15 10l-18 5l-19 2l-21-4l-19-8l-17-12l-14-16l-10-18l-5-20l0-19l4-18l8-15l10-11l12-7l13-3l11 2l9 5l6 8l2 10l-3 11l-7 9l-11 8l-14 4l-16 0l-16-5l-16-9l-15-13l-11-17l-7-20l-2-21l2-21l7-20l11-17l15-13l16-9l16-5l16 0l14 4l11 8l7 9l3 11l-2 10l-6 8l-9 5l-11 2l-13-3l-12-7l-10-11l-8-15l-4-18l0-19l5-20l10-18l14-16l17-12l19-8l21-4l19 2l18 5l15 10l11 12l7 13l3 13l-2 12l-6 10l-8 6l-10 2l-10-2l-9-7l-7-11l-3-13l1-15l5-16l10-15l15-12l17-9l20-5l21-1l21 5l19 8l16 13l13 16l8 17l3 18l-1 17l-5 14l-9 11l-10 8l-11 2l-10-1l-9-6l-5-8l-2-11l3-12l7-11l12-10l15-6l17-3l19 2l18 7l17 11l14 15l11 19l6 20l2 21l-3 20l-8 17l-11 15l-13 11l-14 6l-15 2l-12-3l-10-6l-7-8l-2-10z"/><path d="M307 169l11-6l13-2l15 3l15 7l14 11l10 15l8 19l3 20l-2 21l-6 20l-11 18l-14 15l-17 11l-19 6l-18 2l-16-3l-15-7l-10-9l-6-11l-2-12l2-10l6-8l9-5l11 0l11 3l11 9l8 12l5 15l0 17l-3 18l-9 18l-13 16l-16 12l-19 9l-21 4l-21 0l-19-6l-18-9l-13-12l-10-15l-5-15l0-15l3-12l7-10l9-6l11-1l9 3l8 7l5 10l2 13l-3 14l-8 13l-12 12l-15 10l-19 5l-20 1l-20-3l-20-8l-17-13l-13-16l-10-18l-5-19l0-19l4-17l8-14l11-11l12-6l12-2l11 2l8 6l5 9l1 10l-4 11l-8 10l-11 7l-15 3l-17 0l-17-5l-16-10l-14-14l-11-17l-7-20l-3-21l3-21l7-19l11-17l14-13l16-9l16-4l16 1l13 4l10 8l6 9l2 11l-3 10l-7 7l-9 5l-12 1l-13-3l-13-8l-10-12l-8-16l-4-18l1-20l5-20l10-18l14-16l17-12l19-8l20-3l20 2l17 5l14 10l11 12l6 13l2 12l-3 12l-6 9l-9 5l-10 1l-10-4l-9-7l-6-12l-3-14l1-15l7-17l10-14l15-13l18-9l20-5l21-1l21 5l19 9l16 13l12 15l7 17l3 18l-1 16l-6 13l-8 11l-10 6l-11 2l-10-3l-8-6l-5-9l0-12l3-12l8-11l13-9l15-7l18-2l19 2l19 7l17 12l14 15l11 19l6 20l1 20l-3 20l-8 17l-11 14l-13 11l-14 5l-14 1l-12-3l-9-6l-5-9l-1-10l3-10l7-8z"/><path d="M334 150l15 3l15 7l14 12l11 16l7 19l3 20l-2 21l-7 20l-10 18l-15 15l-17 10l-17 6l-18 1l-16-3l-13-6l-10-10l-6-11l-1-11l4-10l6-7l10-4l11 0l12 5l10 9l8 13l5 15l0 18l-4 19l-9 18l-13 16l-16 12l-20 9l-20 4l-21-1l-19-5l-17-10l-13-12l-9-14l-4-15l0-14l4-12l7-8l9-5l11-1l9 4l8 8l4 11l1 13l-4 15l-8 14l-12 12l-17 9l-19 6l-20 1l-20-4l-20-9l-17-12l-13-16l-9-18l-5-19l0-18l5-17l8-14l10-9l12-6l12-1l10 3l8 7l4 9l-1 11l-4 11l-9 9l-13 7l-15 4l-17-1l-18-6l-16-10l-14-14l-11-18l-7-20l-2-21l3-21l7-19l11-16l14-12l15-9l16-3l15 1l12 5l9 7l5 10l1 10l-3 10l-8 7l-11 4l-12 1l-13-5l-13-8l-11-13l-8-16l-3-19l1-20l5-20l10-18l15-16l17-12l19-8l20-3l19 2l16 6l14 10l10 11l5 13l1 12l-3 11l-7 8l-9 4l-11 0l-10-4l-8-9l-6-12l-3-15l2-16l7-16l11-16l15-12l19-9l20-5l21 0l21 4l18 9l16 13l12 16l7 16l2 17l-2 15l-5 13l-9 10l-10 5l-11 1l-9-3l-8-7l-4-10l0-12l5-13l9-11l13-9l16-7l18-2l20 3l19 7l17 12l14 16l11 18l5 20l2 20l-4 20l-8 16l-10 14l-13 9l-14 5l-13 1l-11-4l-9-7l-4-9l0-10l4-10l8-8l12-5l14-1z"/><path d="M366 150l14 12l11 16l7 19l3 21l-2 21l-7 20l-11 18l-14 14l-16 10l-18 6l-17 1l-15-4l-13-7l-9-9l-4-11l-1-11l4-9l8-7l10-3l12 1l12 6l10 9l8 14l5 17l0 18l-5 19l-9 18l-13 16l-17 12l-20 9l-20 4l-20-1l-19-6l-17-9l-12-12l-8-14l-4-15l1-13l4-11l8-8l9-4l11 1l9 5l7 8l4 12l0 14l-4 15l-9 14l-13 12l-17 10l-19 5l-21 1l-20-4l-20-9l-16-12l-13-16l-9-18l-4-19l0-18l5-15l8-13l10-9l12-5l11 0l10 4l6 7l4 10l-1 11l-6 11l-10 10l-13 6l-16 3l-18-1l-17-6l-17-10l-15-15l-10-18l-7-20l-2-21l3-20l7-19l11-16l14-12l15-7l15-3l14 1l12 5l8 8l4 10l0 10l-4 9l-9 7l-11 4l-13-1l-14-5l-13-9l-10-14l-8-16l-4-20l2-20l5-20l11-18l14-16l17-12l19-7l20-3l18 2l16 7l13 9l9 11l5 13l0 12l-4 10l-8 7l-9 3l-11-1l-10-5l-9-10l-5-13l-2-15l2-17l7-16l12-16l16-13l18-9l21-4l21 0l20 5l19 9l15 12l11 16l7 16l2 16l-3 15l-6 12l-8 9l-10 4l-11 0l-9-4l-7-8l-3-11l1-12l5-13l10-11l14-10l16-6l19-2l20 3l19 8l17 12l15 16l10 18l5 20l1 20l-3 19l-8 16l-11 13l-13 8l-13 5l-12-1l-11-4l-8-7l-3-10l1-10l5-10l9-7l12-5l15-1l16 3l15 9z"/><path d="M393 169l7 19l3 21l-3 21l-7 20l-11 17l-14 14l-16 10l-17 5l-17 0l-15-3l-11-7l-8-10l-4-11l1-10l5-9l8-6l11-2l12 2l12 6l11 11l8 14l4 17l0 19l-5 19l-10 18l-13 16l-17 13l-20 8l-20 3l-20-1l-19-5l-15-10l-12-12l-8-13l-3-14l2-13l5-10l8-7l9-3l11 1l9 6l7 10l3 12l0 15l-5 15l-10 15l-13 12l-18 9l-19 6l-21 0l-21-4l-19-9l-16-12l-13-16l-9-18l-3-18l0-17l5-15l8-12l11-9l11-3l11 0l9 5l6 8l2 10l-2 12l-6 11l-10 9l-15 7l-16 3l-18-2l-19-6l-17-11l-14-15l-11-18l-6-20l-2-21l3-20l8-19l10-15l14-11l15-7l15-3l13 2l11 6l7 8l3 10l-1 10l-5 9l-9 6l-12 3l-14-1l-14-5l-13-11l-11-14l-8-17l-3-20l1-20l6-20l11-19l14-15l17-12l19-7l19-2l18 2l15 7l13 9l8 11l3 12l0 12l-5 9l-8 6l-10 3l-11-2l-10-6l-8-11l-6-13l-1-16l3-18l7-17l12-15l16-13l19-9l21-5l21 1l20 5l18 9l15 13l10 14l7 17l1 15l-3 14l-6 12l-9 7l-10 4l-10-1l-9-5l-6-9l-3-12l2-12l6-13l11-12l14-10l17-5l20-2l20 3l19 8l17 12l14 16l10 18l5 20l1 20l-4 18l-8 16l-10 12l-13 8l-13 3l-12-1l-9-5l-7-7l-3-10l2-11l6-9l10-8l13-4l16-1l16 4l16 9l14 13l11 17z"/></svg>